<svg xmlns="http://www.w3.org/2000/svg" viewBox="0 0 1200 866" width="1200" height="866" role="img" aria-label="0rkhann's contributions 2022–2026 as a stack of assay plates, one per year: 2,345 contributions in total.">
  <style>
    .title { font:700 19px ui-monospace,SFMono-Regular,Menlo,Consolas,monospace; fill:#e6edf3; letter-spacing:2px; }
    .sub { font:400 14px ui-monospace,SFMono-Regular,Menlo,Consolas,monospace; fill:#8b949e; }
    .big { font:700 22px ui-monospace,SFMono-Regular,Menlo,Consolas,monospace; fill:#e6edf3; }
    .yr { font:700 24px ui-monospace,SFMono-Regular,Menlo,Consolas,monospace; fill:#8b949e; }
    .now { fill:#4FD1C5; }
    .rn { font:700 10px ui-monospace,SFMono-Regular,Menlo,Consolas,monospace; fill:#8b949e; text-anchor:middle; }
    .mo { font:400 14px ui-monospace,SFMono-Regular,Menlo,Consolas,monospace; fill:#8b949e; }
    .well { fill:#1a222c; stroke:#2a3440; stroke-width:1; }
    .top { stroke:#a7f3ec; stroke-width:1.2; }
    .hit { opacity:0; animation:read .5s ease-out forwards; }
    @keyframes read { from { opacity:0; } to { opacity:1; } }
    @media (prefers-reduced-motion: reduce) { .hit { animation:none; opacity:1; } }
  </style>
  <defs>
    <pattern id="wells" x="127.0" y="105" width="16" height="16" patternUnits="userSpaceOnUse"><circle cx="8.0" cy="8.0" r="6" class="well"/></pattern>
  </defs>
  <rect width="1200" height="866" rx="14" fill="#0d1117"/>
  <text x="40" y="44" class="title">PLATE STACK · 0rkhann</text>
  <text x="1160" y="44" class="sub" text-anchor="end">1 plate = 1 year · 1 well = 1 day · <tspan style="fill:#4FD1C5;font-weight:700">2,345</tspan> contributions since 2022</text>
  <text x="129.0" y="84" class="mo">Jan</text>
  <text x="209.0" y="84" class="mo">Feb</text>
  <text x="273.0" y="84" class="mo">Mar</text>
  <text x="337.0" y="84" class="mo">Apr</text>
  <text x="401.0" y="84" class="mo">May</text>
  <text x="481.0" y="84" class="mo">Jun</text>
  <text x="545.0" y="84" class="mo">Jul</text>
  <text x="609.0" y="84" class="mo">Aug</text>
  <text x="689.0" y="84" class="mo">Sep</text>
  <text x="753.0" y="84" class="mo">Oct</text>
  <text x="833.0" y="84" class="mo">Nov</text>
  <text x="897.0" y="84" class="mo">Dec</text>
  <path d="M128.0,96 H992.0 a8,8 0 0 1 8,8 V218 a8,8 0 0 1 -8,8 H126.0 a8,8 0 0 1 -8,-8 V106 Z" fill="#111820" stroke="#2a3440" stroke-width="1.2"/>
  <rect x="127.0" y="105" width="864" height="112" fill="url(#wells)"/>
  <text x="106.0" y="116.5" class="rn">A</text>
  <text x="106.0" y="132.5" class="rn">B</text>
  <text x="106.0" y="148.5" class="rn">C</text>
  <text x="106.0" y="164.5" class="rn">D</text>
  <text x="106.0" y="180.5" class="rn">E</text>
  <text x="106.0" y="196.5" class="rn">F</text>
  <text x="106.0" y="212.5" class="rn">G</text>
  <text x="30" y="169.0" class="yr now">2026</text>
  <circle cx="199.0" cy="177.0" r="6" fill="#1c6b65" class="hit" style="animation-delay:0.28s"/>
  <circle cx="215.0" cy="193.0" r="6" fill="#1c6b65" class="hit" style="animation-delay:0.30s"/>
  <circle cx="231.0" cy="113.0" r="6" fill="#2a9f95" class="hit" style="animation-delay:0.32s"/>
  <circle cx="231.0" cy="161.0" r="6" fill="#1c6b65" class="hit" style="animation-delay:0.32s"/>
  <circle cx="231.0" cy="177.0" r="6" fill="#1c6b65" class="hit" style="animation-delay:0.32s"/>
  <circle cx="231.0" cy="193.0" r="6" fill="#12403d" class="hit" style="animation-delay:0.32s"/>
  <circle cx="247.0" cy="129.0" r="6" fill="#1c6b65" class="hit" style="animation-delay:0.34s"/>
  <circle cx="247.0" cy="145.0" r="6" fill="#12403d" class="hit" style="animation-delay:0.34s"/>
  <circle cx="247.0" cy="177.0" r="6" fill="#1c6b65" class="hit" style="animation-delay:0.34s"/>
  <circle cx="295.0" cy="145.0" r="6" fill="#2a9f95" class="hit" style="animation-delay:0.40s"/>
  <circle cx="295.0" cy="177.0" r="6" fill="#1c6b65" class="hit" style="animation-delay:0.40s"/>
  <circle cx="311.0" cy="113.0" r="6" fill="#1c6b65" class="hit" style="animation-delay:0.42s"/>
  <circle cx="311.0" cy="129.0" r="6" fill="#12403d" class="hit" style="animation-delay:0.42s"/>
  <circle cx="311.0" cy="193.0" r="6" fill="#2a9f95" class="hit" style="animation-delay:0.42s"/>
  <circle cx="327.0" cy="193.0" r="6" fill="#2a9f95" class="hit" style="animation-delay:0.44s"/>
  <circle cx="359.0" cy="161.0" r="6" fill="#2a9f95" class="hit" style="animation-delay:0.48s"/>
  <circle cx="359.0" cy="177.0" r="6" fill="#2a9f95" class="hit" style="animation-delay:0.48s"/>
  <circle cx="375.0" cy="129.0" r="6" fill="#1c6b65" class="hit" style="animation-delay:0.50s"/>
  <circle cx="375.0" cy="145.0" r="6" fill="#1c6b65" class="hit" style="animation-delay:0.50s"/>
  <circle cx="375.0" cy="161.0" r="6" fill="#1c6b65" class="hit" style="animation-delay:0.50s"/>
  <circle cx="407.0" cy="129.0" r="6" fill="#1c6b65" class="hit" style="animation-delay:0.54s"/>
  <circle cx="423.0" cy="145.0" r="6" fill="#1c6b65" class="hit" style="animation-delay:0.56s"/>
  <circle cx="423.0" cy="161.0" r="6" fill="#1c6b65" class="hit" style="animation-delay:0.56s"/>
  <circle cx="423.0" cy="177.0" r="6" fill="#1c6b65" class="hit" style="animation-delay:0.56s"/>
  <circle cx="439.0" cy="161.0" r="6" fill="#2a9f95" class="hit" style="animation-delay:0.58s"/>
  <circle cx="439.0" cy="177.0" r="6" fill="#12403d" class="hit" style="animation-delay:0.58s"/>
  <circle cx="439.0" cy="193.0" r="6" fill="#2a9f95" class="hit" style="animation-delay:0.58s"/>
  <circle cx="471.0" cy="193.0" r="6" fill="#12403d" class="hit" style="animation-delay:0.62s"/>
  <circle cx="471.0" cy="209.0" r="6" fill="#1c6b65" class="hit" style="animation-delay:0.62s"/>
  <circle cx="487.0" cy="113.0" r="6" fill="#12403d" class="hit" style="animation-delay:0.64s"/>
  <circle cx="487.0" cy="161.0" r="6" fill="#1c6b65" class="hit" style="animation-delay:0.64s"/>
  <circle cx="487.0" cy="177.0" r="6" fill="#12403d" class="hit" style="animation-delay:0.64s"/>
  <circle cx="487.0" cy="193.0" r="6" fill="#1c6b65" class="hit" style="animation-delay:0.64s"/>
  <circle cx="503.0" cy="129.0" r="6" fill="#12403d" class="hit" style="animation-delay:0.66s"/>
  <circle cx="503.0" cy="145.0" r="6" fill="#12403d" class="hit" style="animation-delay:0.66s"/>
  <circle cx="647.0" cy="129.0" r="6" fill="#2a9f95" class="hit" style="animation-delay:0.84s"/>
  <circle cx="647.0" cy="145.0" r="6" fill="#2a9f95" class="hit" style="animation-delay:0.84s"/>
  <circle cx="647.0" cy="161.0" r="6" fill="#1c6b65" class="hit" style="animation-delay:0.84s"/>
  <circle cx="647.0" cy="177.0" r="6" fill="#1c6b65" class="hit" style="animation-delay:0.84s"/>
  <circle cx="647.0" cy="209.0" r="6" fill="#4FD1C5" class="hit top" style="animation-delay:0.84s"/>
  <circle cx="663.0" cy="113.0" r="6" fill="#2a9f95" class="hit" style="animation-delay:0.86s"/>
  <circle cx="663.0" cy="145.0" r="6" fill="#1c6b65" class="hit" style="animation-delay:0.86s"/>
  <circle cx="663.0" cy="161.0" r="6" fill="#2a9f95" class="hit" style="animation-delay:0.86s"/>
  <circle cx="663.0" cy="177.0" r="6" fill="#2a9f95" class="hit" style="animation-delay:0.86s"/>
  <circle cx="663.0" cy="193.0" r="6" fill="#2a9f95" class="hit" style="animation-delay:0.86s"/>
  <circle cx="663.0" cy="209.0" r="6" fill="#1c6b65" class="hit" style="animation-delay:0.86s"/>
  <circle cx="679.0" cy="113.0" r="6" fill="#4FD1C5" class="hit top" style="animation-delay:0.88s"/>
  <circle cx="679.0" cy="129.0" r="6" fill="#12403d" class="hit" style="animation-delay:0.88s"/>
  <circle cx="679.0" cy="145.0" r="6" fill="#4FD1C5" class="hit top" style="animation-delay:0.88s"/>
  <circle cx="679.0" cy="161.0" r="6" fill="#4FD1C5" class="hit top" style="animation-delay:0.88s"/>
  <circle cx="679.0" cy="177.0" r="6" fill="#4FD1C5" class="hit top" style="animation-delay:0.88s"/>
  <circle cx="679.0" cy="193.0" r="6" fill="#4FD1C5" class="hit top" style="animation-delay:0.88s"/>
  <circle cx="679.0" cy="209.0" r="6" fill="#4FD1C5" class="hit top" style="animation-delay:0.88s"/>
  <circle cx="695.0" cy="113.0" r="6" fill="#4FD1C5" class="hit top" style="animation-delay:0.90s"/>
  <circle cx="695.0" cy="129.0" r="6" fill="#4FD1C5" class="hit top" style="animation-delay:0.90s"/>
  <circle cx="695.0" cy="145.0" r="6" fill="#2a9f95" class="hit" style="animation-delay:0.90s"/>
  <circle cx="695.0" cy="161.0" r="6" fill="#1c6b65" class="hit" style="animation-delay:0.90s"/>
  <circle cx="695.0" cy="209.0" r="6" fill="#1c6b65" class="hit" style="animation-delay:0.90s"/>
  <circle cx="711.0" cy="129.0" r="6" fill="#2a9f95" class="hit" style="animation-delay:0.92s"/>
  <circle cx="711.0" cy="145.0" r="6" fill="#4FD1C5" class="hit top" style="animation-delay:0.92s"/>
  <circle cx="711.0" cy="161.0" r="6" fill="#2a9f95" class="hit" style="animation-delay:0.92s"/>
  <circle cx="711.0" cy="177.0" r="6" fill="#2a9f95" class="hit" style="animation-delay:0.92s"/>
  <circle cx="711.0" cy="193.0" r="6" fill="#4FD1C5" class="hit top" style="animation-delay:0.92s"/>
  <circle cx="711.0" cy="209.0" r="6" fill="#4FD1C5" class="hit top" style="animation-delay:0.92s"/>
  <circle cx="727.0" cy="113.0" r="6" fill="#4FD1C5" class="hit top" style="animation-delay:0.94s"/>
  <circle cx="727.0" cy="129.0" r="6" fill="#4FD1C5" class="hit top" style="animation-delay:0.94s"/>
  <circle cx="727.0" cy="145.0" r="6" fill="#4FD1C5" class="hit top" style="animation-delay:0.94s"/>
  <circle cx="727.0" cy="161.0" r="6" fill="#2a9f95" class="hit" style="animation-delay:0.94s"/>
  <circle cx="727.0" cy="177.0" r="6" fill="#4FD1C5" class="hit top" style="animation-delay:0.94s"/>
  <circle cx="727.0" cy="193.0" r="6" fill="#4FD1C5" class="hit top" style="animation-delay:0.94s"/>
  <circle cx="727.0" cy="209.0" r="6" fill="#4FD1C5" class="hit top" style="animation-delay:0.94s"/>
  <circle cx="743.0" cy="113.0" r="6" fill="#2a9f95" class="hit" style="animation-delay:0.96s"/>
  <circle cx="743.0" cy="145.0" r="6" fill="#4FD1C5" class="hit top" style="animation-delay:0.96s"/>
  <circle cx="743.0" cy="161.0" r="6" fill="#4FD1C5" class="hit top" style="animation-delay:0.96s"/>
  <circle cx="743.0" cy="177.0" r="6" fill="#4FD1C5" class="hit top" style="animation-delay:0.96s"/>
  <circle cx="743.0" cy="193.0" r="6" fill="#4FD1C5" class="hit top" style="animation-delay:0.96s"/>
  <circle cx="743.0" cy="209.0" r="6" fill="#4FD1C5" class="hit top" style="animation-delay:0.96s"/>
  <circle cx="759.0" cy="113.0" r="6" fill="#4FD1C5" class="hit top" style="animation-delay:0.98s"/>
  <circle cx="759.0" cy="129.0" r="6" fill="#4FD1C5" class="hit top" style="animation-delay:0.98s"/>
  <circle cx="759.0" cy="145.0" r="6" fill="#1c6b65" class="hit" style="animation-delay:0.98s"/>
  <circle cx="759.0" cy="161.0" r="6" fill="#2a9f95" class="hit" style="animation-delay:0.98s"/>
  <circle cx="759.0" cy="177.0" r="6" fill="#4FD1C5" class="hit top" style="animation-delay:0.98s"/>
  <rect x="767.0" y="105" width="224" height="112" fill="#111820" opacity=".75"/>
  <text x="1030" y="159.0" class="big">2,230</text>
  <text x="1030" y="181.0" class="sub">30% hit rate</text>
  <path d="M128.0,240 H992.0 a8,8 0 0 1 8,8 V362 a8,8 0 0 1 -8,8 H126.0 a8,8 0 0 1 -8,-8 V250 Z" fill="#111820" stroke="#2a3440" stroke-width="1.2"/>
  <rect x="127.0" y="249" width="864" height="112" fill="url(#wells)"/>
  <text x="106.0" y="260.5" class="rn">A</text>
  <text x="106.0" y="276.5" class="rn">B</text>
  <text x="106.0" y="292.5" class="rn">C</text>
  <text x="106.0" y="308.5" class="rn">D</text>
  <text x="106.0" y="324.5" class="rn">E</text>
  <text x="106.0" y="340.5" class="rn">F</text>
  <text x="106.0" y="356.5" class="rn">G</text>
  <text x="30" y="313.0" class="yr">2025</text>
  <circle cx="231.0" cy="337.0" r="6" fill="#2a9f95" class="hit" style="animation-delay:0.47s"/>
  <circle cx="263.0" cy="257.0" r="6" fill="#12403d" class="hit" style="animation-delay:0.51s"/>
  <circle cx="279.0" cy="273.0" r="6" fill="#12403d" class="hit" style="animation-delay:0.53s"/>
  <circle cx="775.0" cy="337.0" r="6" fill="#12403d" class="hit" style="animation-delay:1.15s"/>
  <circle cx="791.0" cy="273.0" r="6" fill="#12403d" class="hit" style="animation-delay:1.17s"/>
  <circle cx="887.0" cy="305.0" r="6" fill="#12403d" class="hit" style="animation-delay:1.29s"/>
  <circle cx="887.0" cy="321.0" r="6" fill="#12403d" class="hit" style="animation-delay:1.29s"/>
  <circle cx="887.0" cy="337.0" r="6" fill="#12403d" class="hit" style="animation-delay:1.29s"/>
  <text x="1030" y="303.0" class="big">19</text>
  <text x="1030" y="325.0" class="sub">2% hit rate</text>
  <path d="M128.0,384 H992.0 a8,8 0 0 1 8,8 V506 a8,8 0 0 1 -8,8 H126.0 a8,8 0 0 1 -8,-8 V394 Z" fill="#111820" stroke="#2a3440" stroke-width="1.2"/>
  <rect x="127.0" y="393" width="864" height="112" fill="url(#wells)"/>
  <text x="106.0" y="404.5" class="rn">A</text>
  <text x="106.0" y="420.5" class="rn">B</text>
  <text x="106.0" y="436.5" class="rn">C</text>
  <text x="106.0" y="452.5" class="rn">D</text>
  <text x="106.0" y="468.5" class="rn">E</text>
  <text x="106.0" y="484.5" class="rn">F</text>
  <text x="106.0" y="500.5" class="rn">G</text>
  <text x="30" y="457.0" class="yr">2024</text>
  <circle cx="631.0" cy="465.0" r="6" fill="#12403d" class="hit" style="animation-delay:1.12s"/>
  <circle cx="663.0" cy="433.0" r="6" fill="#2a9f95" class="hit" style="animation-delay:1.16s"/>
  <circle cx="663.0" cy="449.0" r="6" fill="#2a9f95" class="hit" style="animation-delay:1.16s"/>
  <circle cx="663.0" cy="465.0" r="6" fill="#1c6b65" class="hit" style="animation-delay:1.16s"/>
  <circle cx="663.0" cy="481.0" r="6" fill="#2a9f95" class="hit" style="animation-delay:1.16s"/>
  <circle cx="679.0" cy="417.0" r="6" fill="#1c6b65" class="hit" style="animation-delay:1.18s"/>
  <circle cx="679.0" cy="433.0" r="6" fill="#12403d" class="hit" style="animation-delay:1.18s"/>
  <circle cx="679.0" cy="449.0" r="6" fill="#2a9f95" class="hit" style="animation-delay:1.18s"/>
  <circle cx="695.0" cy="417.0" r="6" fill="#12403d" class="hit" style="animation-delay:1.20s"/>
  <circle cx="695.0" cy="433.0" r="6" fill="#12403d" class="hit" style="animation-delay:1.20s"/>
  <text x="1030" y="447.0" class="big">69</text>
  <text x="1030" y="469.0" class="sub">3% hit rate</text>
  <path d="M128.0,528 H992.0 a8,8 0 0 1 8,8 V650 a8,8 0 0 1 -8,8 H126.0 a8,8 0 0 1 -8,-8 V538 Z" fill="#111820" stroke="#2a3440" stroke-width="1.2"/>
  <rect x="127.0" y="537" width="864" height="112" fill="url(#wells)"/>
  <text x="106.0" y="548.5" class="rn">A</text>
  <text x="106.0" y="564.5" class="rn">B</text>
  <text x="106.0" y="580.5" class="rn">C</text>
  <text x="106.0" y="596.5" class="rn">D</text>
  <text x="106.0" y="612.5" class="rn">E</text>
  <text x="106.0" y="628.5" class="rn">F</text>
  <text x="106.0" y="644.5" class="rn">G</text>
  <text x="30" y="601.0" class="yr">2023</text>
  <circle cx="215.0" cy="577.0" r="6" fill="#12403d" class="hit" style="animation-delay:0.75s"/>
  <circle cx="679.0" cy="545.0" r="6" fill="#12403d" class="hit" style="animation-delay:1.33s"/>
  <circle cx="695.0" cy="561.0" r="6" fill="#12403d" class="hit" style="animation-delay:1.35s"/>
  <text x="1030" y="591.0" class="big">3</text>
  <text x="1030" y="613.0" class="sub">1% hit rate</text>
  <path d="M128.0,672 H992.0 a8,8 0 0 1 8,8 V794 a8,8 0 0 1 -8,8 H126.0 a8,8 0 0 1 -8,-8 V682 Z" fill="#111820" stroke="#2a3440" stroke-width="1.2"/>
  <rect x="127.0" y="681" width="864" height="112" fill="url(#wells)"/>
  <text x="106.0" y="692.5" class="rn">A</text>
  <text x="106.0" y="708.5" class="rn">B</text>
  <text x="106.0" y="724.5" class="rn">C</text>
  <text x="106.0" y="740.5" class="rn">D</text>
  <text x="106.0" y="756.5" class="rn">E</text>
  <text x="106.0" y="772.5" class="rn">F</text>
  <text x="106.0" y="788.5" class="rn">G</text>
  <text x="30" y="745.0" class="yr">2022</text>
  <circle cx="359.0" cy="689.0" r="6" fill="#2a9f95" class="hit" style="animation-delay:1.08s"/>
  <circle cx="375.0" cy="705.0" r="6" fill="#12403d" class="hit" style="animation-delay:1.10s"/>
  <circle cx="903.0" cy="689.0" r="6" fill="#12403d" class="hit" style="animation-delay:1.76s"/>
  <circle cx="903.0" cy="705.0" r="6" fill="#12403d" class="hit" style="animation-delay:1.76s"/>
  <text x="1030" y="735.0" class="big">24</text>
  <text x="1030" y="757.0" class="sub">1% hit rate</text>
  <text x="40" y="841" class="sub">signal quartiles over all active days · data: GitHub GraphQL</text>
  <text x="970" y="841" class="sub">none</text><circle cx="1025" cy="836" r="6" class="well"/><circle cx="1045" cy="836" r="6" fill="#12403d"/><circle cx="1065" cy="836" r="6" fill="#1c6b65"/><circle cx="1085" cy="836" r="6" fill="#2a9f95"/><circle cx="1105" cy="836" r="6" fill="#4FD1C5"/><text x="1119" y="841" class="sub">high</text>
</svg>
